<svg id="Capa_1" enable-background="new 0 0 510 510" height="512" viewBox="0 0 510 510" width="512" xmlns="http://www.w3.org/2000/svg"><path d="m427.511 296.808c0 119.74-98.1 213.41-213.76 213.19-11.06-.02-22.28-.89-33.59-2.7-9.45-1.48-21.86-17.6-21.86-17.6s-19.85 6.76-26.6 3.95c-113.88-47.26-162.99-179.69-110.96-288.43 11.52-24.12 68.56-44.02 68.56-44.02s22.5-53.88 49.04-63.86c25.11-9.45 50.55-13.87 75.41-13.87 29.51 0 58.18 6.21 84.43 17.55 28.2 12.19 57.44 63.54 57.44 63.54s47.89 30.3 57.43 54.7c9.31 23.79 14.46 49.87 14.46 77.55z" fill="#00aadf"/><path d="m427.511 296.808c0 119.74-98.1 213.41-213.76 213.19v-426.53c29.51 0 58.18 6.21 84.43 17.55 28.2 12.19 57.44 63.54 57.44 63.54s47.89 30.3 57.43 54.7c9.31 23.79 14.46 49.87 14.46 77.55z" fill="#0065a3"/><path d="m271.753 395.11-57.997 71.033-33.598 41.157c-16.892-2.64-33.124-7.28-48.458-13.653v-149.244c0-18.274-7.27-35.784-20.223-48.696l-90.74-90.492c23.636-49.459 65.825-88.409 117.604-107.879l75.415 75.199 27.988 27.906c12.891 12.839 12.891 33.66 0 46.499l-27.988 27.916-15.51 15.469c-2.867 2.867-4.403 6.703-4.403 10.601 0 1.928.382 3.867 1.145 5.723 2.32 5.589 7.776 9.23 13.819 9.23h20.604c13.509 0 26.462 5.342 36.011 14.871l7.012 6.982c15.963 15.922 15.664 41.837-.681 57.378z" fill="#ade952"/><g fill="#53e361"><path d="m271.753 395.11-57.997 71.033v-150.264h15.654c13.509 0 26.462 5.342 36.011 14.871l7.012 6.982c15.964 15.922 15.665 41.837-.68 57.378z"/><path d="m241.744 246.94-27.988 27.916v-102.32l27.988 27.906c12.89 12.838 12.89 33.659 0 46.498z"/><path d="m413.054 219.258-43.098 8.031c-25.671 4.778-50.371-12.094-55.173-37.691l-16.604-88.58c51.563 22.282 93.817 64.393 114.875 118.24z"/></g><path d="m508.204 74.587c-3.929-7.294-13.028-10.023-20.319-6.094l-14.407 7.759-23.961-27.274 28.114-16.265c7.171-4.148 9.62-13.325 5.472-20.496s-13.324-9.621-20.495-5.472l-33.279 19.253-18.358-20.896c-5.466-6.223-14.943-6.837-21.169-1.369-6.224 5.468-6.836 14.945-1.368 21.169l18.312 20.844-23.47 30.297c-5.073 6.549-3.877 15.971 2.672 21.044 6.549 5.074 15.972 3.876 21.045-2.672l19.92-25.714 23.984 27.301-9.562 13.155c-4.871 6.701-3.388 16.082 3.313 20.953 6.704 4.872 16.084 3.385 20.952-3.313l14.607-20.095 21.902-11.795c7.294-3.929 10.023-13.026 6.095-20.32z" fill="#d8d2d7"/></svg>