<svg id="Layer_1" enable-background="new 0 0 511.961 511.961" height="512" viewBox="0 0 511.961 511.961" width="512" xmlns="http://www.w3.org/2000/svg"><g><path d="m0 308.615v203.332h95.451l117.315-203.332z" fill="#bee75e"/><path d="m299.234 308.615 117.315 203.332h95.412v-203.332z" fill="#bee75e"/><path d="m299.234 308.615 117.315 203.332h95.412v-203.332z" fill="#5bc980"/><g><path d="m392.798 67.599-6.35-29.237c18.166-4.083 36.646-8.885 54.792-14.488l8.852 28.664c-18.961 5.856-38.238 10.923-57.294 15.061z" fill="#f6f9f9"/></g><g><path d="m392.798 67.599-6.35-29.237c18.166-4.083 36.646-8.885 54.792-14.488l8.852 28.664c-18.961 5.856-38.238 10.923-57.294 15.061z" fill="#ececef"/></g><g><path d="m121.536 189.937c-19.114-4.016-38.315-9.136-57.295-14.997l8.852-28.665c18.164 5.609 36.604 10.457 54.808 14.409z" fill="#f6f9f9"/></g><g><path d="m392.798 190.003-6.367-29.316c18.218-3.957 36.659-8.804 54.81-14.409l8.851 28.665c-18.967 5.856-38.243 10.923-57.294 15.06z" fill="#f6f9f9"/></g><g><path d="m392.798 190.003-6.367-29.316c18.218-3.957 36.659-8.804 54.81-14.409l8.851 28.665c-18.967 5.856-38.243 10.923-57.294 15.06z" fill="#ececef"/></g><path d="m333.869 308.615h-155.738l-117.316 203.332h390.37z" fill="#454040"/><path d="m333.869 308.615h-76.702v203.332h194.018z" fill="#2e2e2e"/><g><path d="m242.167 323.615h30v40.002h-30z" fill="#f6f9f9"/></g><g><path d="m242.167 390.619h30v40.002h-30z" fill="#f6f9f9"/></g><g><path d="m242.167 457.623h30v39.324h-30z" fill="#f6f9f9"/></g><g><path d="m121.536 67.6c-19.039-4.133-38.315-9.201-57.295-15.062l8.852-28.665c18.164 5.609 36.604 10.457 54.808 14.409z" fill="#f6f9f9"/></g><g><path d="m430.667.014h30v383.458h-30z" fill="#595959"/></g><g><path d="m53.667.014h30v383.458h-30z" fill="#595959"/></g><path d="m386.431 38.285c-42.906 9.318-86.39 14.042-129.244 14.042-42.856 0-86.355-4.725-129.287-14.045l-18.182-4.226v153.266l11.818 2.678c45.014 9.772 90.653 14.727 135.651 14.728h.015c44.98 0 90.602-4.955 135.597-14.686l11.817-2.718-.001-153.268z" fill="#ff6326"/><g><path d="m430.667.014h30v383.458h-30z" fill="#454040"/></g><g fill="#ececef"><path d="m257.167 323.615h15v40.002h-15z"/><path d="m257.167 390.619h15v40.002h-15z"/><path d="m257.167 457.623h15v39.324h-15z"/></g><path d="m257.202 204.729c44.98 0 90.602-4.955 135.597-14.687l11.817-2.718-.001-153.268-18.184 4.229c-42.906 9.318-86.39 14.042-129.244 14.042-.007 0-.014 0-.02 0v152.401h.02c.006.001.009.001.015.001z" fill="#ff3838"/></g></svg>